PathFileType	4	(X/Y/Z)	path1_11_0-607.trc
DataRate	CameraRate	NumFrames	NumMarkers	Units	OrigDataRate	OrigDataStartFrame	OrigNumFrames
30	30	7	22	m	30	379	607
Frame#	Time	Hip			RHip			RKnee			RAnkle			RBigToe			RSmallToe			RHeel			LHip			LKnee			LAnkle			LBigToe			LSmallToe			LHeel			Neck			Head			Nose			RShoulder			RElbow			RWrist			LShoulder			LElbow			LWrist		
		X1	Y1	Z1	X2	Y2	Z2	X3	Y3	Z3	X4	Y4	Z4	X5	Y5	Z5	X6	Y6	Z6	X7	Y7	Z7	X8	Y8	Z8	X9	Y9	Z9	X10	Y10	Z10	X11	Y11	Z11	X12	Y12	Z12	X13	Y13	Z13	X14	Y14	Z14	X15	Y15	Z15	X16	Y16	Z16	X17	Y17	Z17	X18	Y18	Z18	X19	Y19	Z19	X20	Y20	Z20	X21	Y21	Z21	X22	Y22	Z22
380	12.666666666666666	2.2285872590936058	0.8256521076380008	0.6799868405989178	2.220818791888627	0.8162899111852342	0.5852669923064403	2.047533234096013	0.5090306886424815	0.5858782315275787	2.0658911055268216	0.14119631639245847	0.5901531963294371	1.873700023605499	0.06139845969442057	0.5782257370077993	1.9300920006234963	0.051948241549944325	0.5234681902739591	2.1058843550081807	0.058426687166344464	0.6100237979863032	2.2338860158319833	0.8035754162767638	0.7625389403191588	2.2766366917692693	0.4404443063945807	0.7421488248499126	2.3787127283249934	0.10511570996861722	0.7056874885691609	2.218066625947535	0.020223121986339607	0.7328570985894085	2.2570441099629015	0.017036093715204505	0.7725460449361186	2.4245839958885407	0.043172255163060995	0.7036153929011216	2.1756656832816916	1.44810381143438	0.6993821675767475	2.1018236906256043	1.6784168176538434	0.6875007471453922	2.0310600517614295	1.5660206913577048	0.7144464834712276	2.227397879929405	1.3627041298780014	0.5288243494556902	2.2726911958402334	1.0762549045860639	0.48013057732285974	2.2528759845602386	0.8358348859830196	0.4348843339345031	2.1729976970558846	1.3361479616934355	0.8687831333724324	2.135478173203076	1.0690647810919067	0.9185856454603033	2.00867512635854	0.8640497658947048	0.9295174546810453
381	12.7	2.1992632623642017	0.8233894509460004	0.6801254131181815	2.192183083907108	0.8146295487365095	0.5873057501084624	2.0202022596321916	0.5043382431717994	0.5903452893744792	1.9946809286374296	0.1366325341632626	0.5964281760613166	1.798217291499105	0.06980658542354357	0.5853010048091043	1.8548872511862111	0.058590077416667365	0.5297598953456871	2.026022662852202	0.051622262020373844	0.6181062626096782	2.2044351190916505	0.8014245317388626	0.7629616687726524	2.261798086008596	0.43791289905870395	0.7421028060301972	2.3777391994511055	0.10532606600784933	0.7045701318304904	2.2140807502594915	0.02150539375781806	0.7282179418362151	2.2555288270285563	0.018054932531907986	0.7698412520693569	2.4267857313037844	0.04256360368538363	0.6997972333216148	2.148181161642097	1.4438964914186205	0.7011112798523635	2.0730558079840207	1.6727385220479545	0.6912389978060947	2.0072226313398884	1.56438869844117	0.7138173431500301	2.2014285590607834	1.3600200321980733	0.5297708613664289	2.2532310796557757	1.0762454171725013	0.4805643206976696	2.242517600708349	0.8348749675528542	0.43654914836428627	2.146419267694605	1.33400897282697	0.8728602417258658	2.1040261119233294	1.0662823665779415	0.9191963566572455	1.9704827026753273	0.8670281620714716	0.9263945152226148
382	12.733333333333333	2.168516952553939	0.8216235732009746	0.6796882744365489	2.1628328276703597	0.8128845222779675	0.5889206803518139	1.994155911669416	0.4989729693746363	0.5944280003289213	1.935551579833121	0.13393754965557356	0.6028204928204245	1.7390359105269555	0.07602061377670129	0.5937566643629539	1.7945618663486393	0.06434282811745526	0.5368738627265405	1.9610567427830714	0.04798637829704984	0.6254331937323339	2.173760270956572	0.7993593095247724	0.7630295505544337	2.244660948989859	0.43615174628484066	0.7423118389810615	2.3768631899430384	0.10669626703445424	0.7049396130677295	2.211424455435356	0.021168454339245264	0.7230782334872763	2.2557775914305416	0.01877160563100436	0.766375118799808	2.428668868051192	0.04266343845886175	0.6957584136263406	2.1197447184173295	1.439468446808299	0.7014526382441847	2.0441642164400746	1.6684611093342303	0.6928792496516339	1.9804220536018204	1.5618042191539545	0.7115031203402833	2.17389227701233	1.356912441826647	0.5296363418313181	2.2307129183771433	1.0757847830613088	0.4805291296837652	2.226932360271001	0.8334796020671034	0.4382685882193376	2.1209099184845934	1.3326029523746006	0.8765597416248372	2.073956608255762	1.0625953710638294	0.9183034120343279	1.9366183171735687	0.8683759583843879	0.9227722344274761
383	12.766666666666667	2.136055562341184	0.8206193611937811	0.6784886740137697	2.132368090949018	0.8113786802852132	0.5897518680604483	1.9679518044395024	0.49368352014445244	0.598504706352047	1.8904315501241185	0.13135508598301582	0.6090903910654795	1.696046120137045	0.07799307296978622	0.6031150627158096	1.749917687132758	0.06652354555346454	0.5444897320020675	1.9137238930387963	0.04555948413731464	0.6319561909292353	2.1417180960091757	0.7976917890946394	0.7625311100068533	2.2238273029564626	0.4353894352419113	0.7429157439437252	2.374963038259825	0.10977880574560313	0.706582817223928	2.2109121455410397	0.018845102231463795	0.7184472464005014	2.257506630130082	0.019002430899891964	0.7629935871502211	2.4294751918304156	0.04597232932156153	0.6927114559668169	2.090566711338114	1.435575096839506	0.7004204215273111	2.0154799195481656	1.665287189880684	0.6927078788452472	1.9510406768090423	1.5582889836724574	0.7085242470437035	2.1448719685526663	1.3535980127161151	0.5284312811044569	2.2045872964164475	1.0745876934674188	0.47994847729601864	2.2060603115521027	0.8318384889161425	0.4398592967173524	2.0953938241697934	1.33210748230605	0.8792339535303613	2.044625894759509	1.059147474687467	0.9160697087712302	1.9067429030946703	0.8680767346018644	0.9186999396382041
384	12.8	2.102056658050422	0.8204101825062717	0.6764587079358925	2.1006560380734824	0.8102830922586953	0.5895155423873402	1.9406094005276944	0.48841676556068414	0.6023546366197321	1.8591400508479785	0.12766582203497767	0.6149922616530247	1.6674337610837988	0.07495477791119086	0.6123183530460821	1.7195799916943453	0.0637878189009186	0.5523122168731158	1.8836947451704575	0.04313968074070785	0.6375473274710846	2.1080791023848593	0.7966134579606042	0.761256544347873	2.1974978476228477	0.43567561854941483	0.7440616639813566	2.3700747665161757	0.11589747751452943	0.709313695957515	2.2123434614294175	0.015295311130735732	0.7149969105709718	2.2594332588226615	0.019244604460896323	0.760440066922168	2.4277484871947537	0.05528607656691134	0.691865995434017	2.0607592878551233	1.432862863052295	0.6982982083011406	1.9871379949788646	1.6630679870975045	0.6911650644134878	1.9196306940408914	1.5545357414862946	0.705127564260722	2.1145185634236694	1.350493537317025	0.5263676456181062	2.174696421069594	1.072538761465395	0.4788572586367824	2.1800029286107243	0.8302429244465039	0.44101422662942025	2.0686578586612727	1.3325378318503804	0.8802400554232653	2.015606536467599	1.0570173955346926	0.9129377252652433	1.880400840130644	0.8662464755153484	0.9143579989448072
385	12.833333333333334	2.067077344838066	0.820910305081403	0.6738255152370604	2.067854055628713	0.8097555722218677	0.5881900402826998	1.91252215753479	0.48321506673614095	0.6053776331095455	1.839469321442202	0.12289118486774978	0.6202912871153863	1.6499781817341062	0.0680403606417707	0.6202083659798522	1.7002481549847182	0.05699981167537658	0.5600862762344415	1.8676798005456687	0.04064261620767786	0.6419769464250923	2.072861858862706	0.7963290980831838	0.759269890095082	2.1637436101546497	0.4368805781110741	0.7458811464243443	2.359774836025581	0.12653717207690526	0.7133080245393405	2.2147072776674794	0.012018548106282074	0.7132359170253145	2.2600472389091864	0.02055715809470935	0.7591401423540237	2.421332477245348	0.07224567375850524	0.6939246972420896	2.0302648209434206	1.431327669372788	0.6953219937538878	1.9589646344223641	1.6618804806810064	0.6886012323490185	1.8871219081522796	1.5515280922964636	0.7012295245445244	2.0833230491420665	1.3483648933358119	0.5241252234345561	2.141653654873311	1.0700172230422753	0.4777815675170622	2.1485008557552154	0.8288929376071495	0.4412953787808899	2.0396802376009906	1.3336834469096936	0.8791218986569042	1.9871489132225597	1.0565886867144432	0.9093602166314004	1.857244144272067	0.8631425513761719	0.910174656374747
386	12.866666666666667	2.031893756909401	0.8220401530309802	0.6711297126943547	2.034408454123075	0.8099297506136476	0.586074223486717	1.8853077488775083	0.47863148457991733	0.6069619706685293	1.8280778439650998	0.11808833189294893	0.6247517773962422	1.6399258906502392	0.05963075261118961	0.6260925248036419	1.6880313736347403	0.04851926802312782	0.567437729462984	1.860828252654754	0.03858149000211626	0.6451149443779256	2.0366593447520467	0.797026777251828	0.7570130857874992	2.1209331989670783	0.4389173952613705	0.7484386112569642	2.3415893000696553	0.1424538397114761	0.7188291720938073	2.2159192239869	0.010782011011352035	0.7137165389632381	2.2574835567325797	0.02424401527564356	0.7593878159028461	2.4077892699396877	0.09679531820092474	0.6991277927422381	1.9989682780283256	1.4305227575307446	0.6916406899796912	1.9306311624194583	1.661856518398736	0.6852597640919847	1.8548116003402029	1.550001107259521	0.6970723365897878	2.0521569707279137	1.348142079958116	0.5227620347008562	2.1069902098263666	1.0679923808826928	0.47781851700915834	2.110825342315387	0.8278748810272659	0.44021484166539265	2.0076699606908215	1.3351184031970524	0.8755286371991703	1.9600177038557358	1.0575413731858245	0.9056812529965113	1.8370460182842163	0.8591754269457398	0.9067169334811079
